<?xml version="1.0" encoding="UTF-8"?>
<svg width="434.67" height="165.33" version="1.1" viewBox="0 0 115.01 43.744" xmlns="http://www.w3.org/2000/svg" xmlns:cc="http://creativecommons.org/ns#" xmlns:dc="http://purl.org/dc/elements/1.1/" xmlns:osb="http://www.openswatchbook.org/uri/2009/osb" xmlns:rdf="http://www.w3.org/1999/02/22-rdf-syntax-ns#" xmlns:xlink="http://www.w3.org/1999/xlink">
 <metadata>
  <rdf:RDF>
   <cc:Work rdf:about="">
    <dc:format>image/svg+xml</dc:format>
    <dc:type rdf:resource="http://purl.org/dc/dcmitype/StillImage"/>
    <dc:title/>
   </cc:Work>
  </rdf:RDF>
 </metadata>
 <g transform="translate(0 -244.08)">
  <g transform="translate(-.44399 -3.0731)">
   <path d="m48.791 290.59c-0.29104-0.0692-0.8142-0.18723-1.1626-0.26236-0.62127-0.13397-0.63028-0.17713-0.47026-2.2522 0.0897-1.1636 0.23296-2.2286 0.31829-2.3666 0.0853-0.13807 0.67726-0.25103 1.3154-0.25103 0.8449 0 1.362-0.1735 1.9026-0.63836l0.74236-0.63837 0.0757-12.988 0.0757-12.988h7.1246v12.847c0 8.8976-0.09484 13.229-0.30849 14.089-0.58946 2.3726-2.0296 3.993-4.3418 4.8854-1.1261 0.4346-4.3585 0.77952-5.2715 0.5625zm-15.61-8.0771c-3.5438-0.46357-7.0899-2.8177-8.6998-5.7755-1.9274-3.5413-1.9172-9.4628 0.0225-13.028 1.3957-2.5657 3.3959-4.1499 6.6554-5.2713 2.0555-0.70718 6.5277-0.69287 8.6217 0.0276 3.8426 1.322 6.279 3.8446 7.3983 7.6598 0.61555 2.0982 0.56483 6.3807-0.10095 8.5231-1.7779 5.7211-7.1302 8.75-13.897 7.8648zm4.8322-5.9496c0.39823-0.28918 1.0217-1.1149 1.3855-1.8349 0.59608-1.1798 0.66146-1.623 0.66146-4.4842s-0.0654-3.3044-0.66146-4.4842c-0.86796-1.7179-1.7388-2.3201-3.5748-2.4724-2.9826-0.24733-4.583 1.2537-5.1606 4.8399-0.66627 4.1367 0.46711 7.7263 2.7692 8.7705 1.1375 0.51595 3.6634 0.33138 4.5807-0.33473zm29.658 5.9865c-2.2893-0.40078-3.9794-1.5303-4.9444-3.3043-0.60263-1.1079-0.59924-4.73 0.0055-5.8424 1.4828-2.7276 5.5942-4.5976 11.047-5.0241l2.3964-0.18747v-1.1826c0-2.3732-1.3469-3.7801-3.6119-3.773-0.5764 2e-3 -1.9358 0.40372-3.1323 0.92605-3.1086 1.357-3.8475 1.2332-5.1799-0.8676-0.96449-1.5208-0.97009-1.9353-0.03546-2.6263 2.5269-1.8682 5.6585-2.819 9.3136-2.8277 3.2781-8e-3 5.0307 0.54815 6.7714 2.1481 2.7337 2.5125 3.0181 3.8459 3.0181 14.148v8.1465h-2.3351c-2.0838 0-2.3938-0.0641-2.88-0.59531-0.29968-0.32742-0.62612-0.8632-0.72541-1.1906-0.09929-0.32743-0.278-0.59532-0.39713-0.59532-0.11913 0-0.91478 0.46475-1.7681 1.0328-2.2039 1.467-4.9862 2.063-7.5421 1.6156zm6.4667-5.1928c1.7309-0.87456 2.0374-1.3576 2.0374-3.2112v-1.6947l-1.7859 0.18682c-2.2117 0.23135-4.43 1.0296-4.9587 1.7844-0.5564 0.79437-0.49769 1.843 0.14921 2.6654 0.48314 0.61421 0.7365 0.69714 2.1298 0.69714 0.93107 0 1.9297-0.17595 2.4282-0.42783zm14.805 4.7552c-1.7281-0.85192-2.4864-3.5226-1.527-5.378 1.2956-2.5054 5.0045-2.7464 6.8575-0.44555 1.5527 1.9279 0.86575 4.9751-1.3281 5.8917-1.163 0.48591-2.9398 0.45563-4.0024-0.0682zm-87.581-16.697 0.0681-16.867 7.8052-0.1464v27.531h12.7v6.35h-20.641zm52.456-9.7811c-0.29104-0.0707-0.91624-0.42023-1.3893-0.77673-3.0744-2.3167-1.6393-7.0602 2.249-7.4338 1.5873-0.15252 3.1617 0.56002 4.079 1.8461 0.87393 1.2253 0.86558 3.4286-0.0177 4.667-1.0224 1.4335-3.0825 2.1441-4.921 1.6975z" fill="#0079ad" stroke-width=".26458"/>
   <text x="85.814163" y="269.82678" fill="#3a3a3a" font-family="sans-serif" font-size="23.375px" stroke-width=".58438" style="line-height:1.25" xml:space="preserve"><tspan x="85.814163" y="269.82678" fill="#3a3a3a" font-family="Calibri" stroke-width=".58438">3.0</tspan></text>
  </g>
 </g>
</svg>
