<?xml version="1.0" encoding="UTF-8" standalone="no"?>
<svg
   xmlns:dc="http://purl.org/dc/elements/1.1/"
   xmlns:cc="http://creativecommons.org/ns#"
   xmlns:rdf="http://www.w3.org/1999/02/22-rdf-syntax-ns#"
   xmlns:svg="http://www.w3.org/2000/svg"
   xmlns="http://www.w3.org/2000/svg"
   xmlns:sodipodi="http://sodipodi.sourceforge.net/DTD/sodipodi-0.dtd"
   xmlns:inkscape="http://www.inkscape.org/namespaces/inkscape"
   version="1.1"
   id="svg2"
   width="68.26667"
   height="78.26667"
   viewBox="0 0 68.26667 78.26667"
   sodipodi:docname="phone.svg"
   inkscape:version="1.0.1 (3bc2e813f5, 2020-09-07)">
  <metadata
     id="metadata8">
    <rdf:RDF>
      <cc:Work
         rdf:about="">
        <dc:format>image/svg+xml</dc:format>
        <dc:type
           rdf:resource="http://purl.org/dc/dcmitype/StillImage" />
        <dc:title></dc:title>
      </cc:Work>
    </rdf:RDF>
  </metadata>
  <defs
     id="defs6" />
  <sodipodi:namedview
     pagecolor="#ffffff"
     bordercolor="#666666"
     borderopacity="1"
     objecttolerance="10"
     gridtolerance="10"
     guidetolerance="10"
     inkscape:pageopacity="0"
     inkscape:pageshadow="2"
     inkscape:window-width="1366"
     inkscape:window-height="705"
     id="namedview4"
     showgrid="false"
     inkscape:zoom="1.9702147"
     inkscape:cx="39.326015"
     inkscape:cy="69.132521"
     inkscape:window-x="-8"
     inkscape:window-y="-8"
     inkscape:window-maximized="1"
     inkscape:current-layer="g10" />
  <g
     inkscape:groupmode="layer"
     inkscape:label="Image"
     id="g10">
    <path
       style="fill:#00a7ec;fill-opacity:1;stroke-width:1.06667"
       d="M 46.915674,66.351228 C 29.888228,62.257683 11.319266,46.057195 4.1820946,29.06832 0.27467756,19.767351 -0.18948044,13.27098 2.6314286,7.3651549 4.8435836,2.73381 7.6615736,0.57737449 12.171105,0.06502429 c 2.827455,-0.3212411 3.526943,0.3246253 7.703912,7.11334571 2.526753,4.106666 4.607336,7.845926 4.623519,8.309466 0.01618,0.463541 -1.994472,2.7116 -4.46812,4.995685 -4.005072,3.698156 -4.384663,4.454093 -3.466667,6.903718 2.960454,7.89981 15.588864,20.52822 23.488674,23.488674 2.449625,0.917996 3.205562,0.538405 6.903718,-3.466667 2.284085,-2.473648 4.532144,-4.484302 4.995685,-4.46812 0.46354,0.01618 4.202798,2.096766 8.309468,4.623519 6.78872,4.176969 7.43459,4.876457 7.11334,7.703912 -0.49835,4.386369 -2.65264,7.327344 -6.76679,9.237861 -4.96906,2.307513 -9.325814,2.894519 -13.69217,1.84481 z"
       id="path14" />
  </g>
</svg>
