<?xml version="1.0" encoding="UTF-8"?>
<svg width="51" height="49" version="1.1" viewBox="0 0 51 49" xmlns="http://www.w3.org/2000/svg">
 <path d="m18.636 46.835c-1.2145-0.42998-2.4965-1.907-2.8178-3.2463-0.82954-3.4579 2.8399-6.5873 6.1183-5.2179 3.1113 1.2997 3.796 5.5711 1.2318 7.6848-1.3505 1.1132-2.8575 1.3723-4.5323 0.77938zm16.681 0.05641c-1.4345-0.53312-2.3484-1.5105-2.8063-3.0011-0.66029-2.1497 0.25146-4.2895 2.2526-5.2868 1.9713-0.98234 4.0441-0.60862 5.4396 0.98073 1.8931 2.1562 1.3314 5.5512-1.1451 6.9202-1.1214 0.61997-2.68 0.78117-3.7409 0.38691zm-15.826-11.087c-3.2852-0.71389-5.9537-2.9486-6.9829-5.8477-0.18689-0.52648-1.2407-5.4443-2.3417-10.928-1.1729-5.8419-2.1597-10.247-2.3831-10.636-0.52524-0.91598-1.8831-1.549-3.7178-1.7333-1.3399-0.13456-1.6216-0.24062-2.2152-0.83426-1.2669-1.2669-1.0799-3.2579 0.39033-4.1542 1.3137-0.80092 4.8375-0.40613 7.031 0.78771 1.4026 0.76337 3.1736 2.7164 3.742 4.1266 0.25332 0.62849 1.3675 5.6656 2.476 11.194 1.1085 5.528 2.158 10.327 2.3324 10.664 0.43602 0.84317 1.4666 1.6677 2.4129 1.9305 0.47562 0.13209 3.8114 0.22018 8.365 0.22089l7.5739 0.0013 0.84962-1.2231c1.3775-1.9831 2.9451-4.7587 4.953-8.7697 1.9961-3.9875 2.3675-4.4377 3.8077-4.6151 1.4739-0.18152 3.0006 1.2029 3.0015 2.7218 8.13e-4 0.9675-4.7072 10.044-6.8823 13.269-1.2332 1.8283-2.6636 3.2988-3.6469 3.7491-0.78008 0.35718-1.5412 0.38858-9.1469 0.37736-6.1329-9e-3 -8.6408-0.08716-9.6183-0.29957z" fill="#cecece" stroke-width=".21272"/>
</svg>
