<?xml version="1.0" encoding="UTF-8"?>
<svg width="68.267" height="78.267" version="1.1" viewBox="0 0 68.26667 78.26667" xmlns="http://www.w3.org/2000/svg">
 <path d="m46.916 70.919c-17.027-4.0935-35.596-20.294-42.734-37.283-3.9074-9.301-4.3716-15.797-1.5507-21.703 2.2122-4.6313 5.0301-6.7878 9.5397-7.3001 2.8275-0.32124 3.5269 0.32463 7.7039 7.1133 2.5268 4.1067 4.6073 7.8459 4.6235 8.3095 0.01618 0.46354-1.9945 2.7116-4.4681 4.9957-4.0051 3.6982-4.3847 4.4541-3.4667 6.9037 2.9605 7.8998 15.589 20.528 23.489 23.489 2.4496 0.918 3.2056 0.5384 6.9037-3.4667 2.2841-2.4736 4.5321-4.4843 4.9957-4.4681 0.46354 0.01618 4.2028 2.0968 8.3095 4.6235 6.7887 4.177 7.4346 4.8765 7.1133 7.7039-0.49835 4.3864-2.6526 7.3273-6.7668 9.2379-4.9691 2.3075-9.3258 2.8945-13.692 1.8448z" fill="#00a7ec" stroke-width="1.0667"/>
</svg>
