<?xml version="1.0" encoding="UTF-8"?>
<svg width="68.267" height="68.267" version="1.1" viewBox="0 0 68.267 68.267" xmlns="http://www.w3.org/2000/svg" xmlns:cc="http://creativecommons.org/ns#" xmlns:dc="http://purl.org/dc/elements/1.1/" xmlns:rdf="http://www.w3.org/1999/02/22-rdf-syntax-ns#">
 <metadata>
  <rdf:RDF>
   <cc:Work rdf:about="">
    <dc:format>image/svg+xml</dc:format>
    <dc:type rdf:resource="http://purl.org/dc/dcmitype/StillImage"/>
    <dc:title/>
   </cc:Work>
  </rdf:RDF>
 </metadata>
 <path d="m53.054 60.503-7.8441-7.6334-3.7911 1.8352c-5.4665 2.6463-15.888 3.0585-22.425 0.88702-7.6979-2.5568-15.179-10.286-17.421-17.999-6.5329-22.472 13.54-42.545 36.012-36.012 7.7129 2.2422 15.442 9.7234 17.999 17.421 2.1715 6.5377 1.7593 16.959-0.88702 22.425l-1.8352 3.7911 7.6334 7.8441c7.8891 8.1068 8.954 10.569 5.8047 13.419-3.1178 2.8215-5.1403 1.9086-13.245-5.9784zm-15.291-15.893c2.6006-1.5241 5.3615-4.3186 6.9581-7.0431 4.9096-8.3775 1.8546-19.137-6.9595-24.512-4.4593-2.7192-12.701-2.5711-17.846 0.32065-10.066 5.6576-11.984 20.669-3.6331 28.444 6.3647 5.9265 14.357 6.9645 21.481 2.7898z" fill="#fff"/>
</svg>
