<?xml version="1.0" encoding="UTF-8"?>
<svg width="104" height="20" version="1.1" xmlns="http://www.w3.org/2000/svg" xmlns:cc="http://creativecommons.org/ns#" xmlns:dc="http://purl.org/dc/elements/1.1/" xmlns:rdf="http://www.w3.org/1999/02/22-rdf-syntax-ns#">
 <metadata>
  <rdf:RDF>
   <cc:Work rdf:about="">
    <dc:format>image/svg+xml</dc:format>
    <dc:type rdf:resource="http://purl.org/dc/dcmitype/StillImage"/>
    <dc:title/>
   </cc:Work>
  </rdf:RDF>
 </metadata>
 <defs>
  <linearGradient id="linearGradient5152" x1="16.432" x2="16.432" y2="32.863" gradientTransform="matrix(1.6432 0 0 .60858 .40103 -27.823)" gradientUnits="userSpaceOnUse">
   <stop stop-color="#444D56" offset="0"/>
   <stop stop-color="#24292E" offset="1"/>
  </linearGradient>
  <linearGradient id="linearGradient1018" x1="15.811" x2="15.811" y2="31.623" gradientTransform="matrix(1.5811 0 0 .63246 54.401 -27.823)" gradientUnits="userSpaceOnUse">
   <stop stop-color="#29a9df" offset="0"/>
   <stop stop-color="#01487a" offset="1"/>
  </linearGradient>
 </defs>
 <g transform="translate(-.40103 27.823)">
  <path d="m0.40103-24.823c0-1.6569 1.3552-3 3.027-3h50.973v20h-50.973c-1.6718 0-3.027-1.3431-3.027-3z" fill="url(#linearGradient5152)"/>
  <path d="m54.401-27.823h46.939c1.69 0 3.061 1.343 3.061 3v14c0 1.657-1.37 3-3.061 3h-46.939z" fill="url(#linearGradient1018)"/>
  <path d="m20.233-25.009h13.35l-1.233 13.634-5.4838 1.5392-5.3997-1.5476z" fill="none" stroke="#959da5"/>
  <path d="m22.488-22.395h8.9584l-0.78208 9.1361-3.6616 0.9776-3.6438-1.0309-0.24884-2.8262h1.7952l0.10665 1.4042 1.9908 0.58656 1.973-0.56879 0.2133-2.2751h-6.1678l-0.17775-1.7597 6.47-0.03555 0.17775-1.7952-6.8077 0.03555z" fill="#fff"/>
  <path d="m33.035-24.512-1.1338 12.744-5.0252 1.3965v-14.18z" fill="#fff" fill-opacity=".19512"/>
  <g transform="translate(4.25)" font-family="sans-serif" font-size="8.639px" stroke-width=".21598">
   <text x="64.239853" y="-14.229486" fill="#000000" fill-opacity=".29804" style="line-height:1.25" xml:space="preserve"><tspan x="64.239853" y="-14.229486" fill="#000000" fill-opacity=".29804" stroke-width=".21598">CSS3</tspan></text>
   <text x="63.815903" y="-14.706415" fill="#ffffff" style="line-height:1.25" xml:space="preserve"><tspan x="63.815903" y="-14.706415" fill="#ffffff" stroke-width=".21598">CSS3</tspan></text>
  </g>
 </g>
</svg>
