<?xml version="1.0" encoding="UTF-8"?>
<svg width="104" height="20" version="1.1" xmlns="http://www.w3.org/2000/svg" xmlns:cc="http://creativecommons.org/ns#" xmlns:dc="http://purl.org/dc/elements/1.1/" xmlns:rdf="http://www.w3.org/1999/02/22-rdf-syntax-ns#">
 <metadata>
  <rdf:RDF>
   <cc:Work rdf:about="">
    <dc:format>image/svg+xml</dc:format>
    <dc:type rdf:resource="http://purl.org/dc/dcmitype/StillImage"/>
    <dc:title/>
   </cc:Work>
  </rdf:RDF>
 </metadata>
 <defs>
  <linearGradient id="linearGradient123-0" x1="15.811" x2="15.811" y2="31.623" gradientTransform="matrix(1.5811 0 0 .63246 54 0)" gradientUnits="userSpaceOnUse">
   <stop stop-color="#f16529" offset="0"/>
   <stop stop-color="#ab3921" offset="1"/>
  </linearGradient>
  <linearGradient id="linearGradient5152" x1="16.432" x2="16.432" y2="32.863" gradientTransform="scale(1.6432 .60858)" gradientUnits="userSpaceOnUse">
   <stop stop-color="#444D56" offset="0"/>
   <stop stop-color="#24292E" offset="1"/>
  </linearGradient>
 </defs>
 <path d="m0 3c0-1.6569 1.3552-3 3.027-3h50.973v20h-50.973c-1.6718 0-3.027-1.3431-3.027-3z" fill="url(#linearGradient5152)"/>
 <path d="m54 0h46.939c1.69 0 3.061 1.343 3.061 3v14c0 1.657-1.37 3-3.061 3h-46.939z" fill="url(#linearGradient123-0)"/>
 <path d="m19.832 2.8147h13.35l-1.233 13.634-5.4838 1.5392-5.3997-1.5476z" fill="none" stroke="#959da5"/>
 <path d="m32.637 3.3195-1.1338 12.748-5.0252 1.3965v-14.144z" fill="#fff" fill-opacity=".19512"/>
 <path d="m31.003 5.0364h-8.9714l0.46404 5.4359 6.2314 0.06629-0.19887 2.2318-2.055 0.57452-1.9666-0.50823-0.13258-1.4363h-1.7678l0.19887 2.8174 3.7123 1.0828 3.7484-1.113 0.42188-5.4688-6.5567-0.01426-0.11048-1.8672 6.8547 0.03772z" fill="#fff"/>
 <text x="64.141121" y="13.807509" fill="#000000" fill-opacity=".29804" font-family="sans-serif" font-size="8.639px" stroke-width=".21598" style="line-height:1.25" xml:space="preserve"><tspan x="64.141121" y="13.807509" fill="#000000" fill-opacity=".29804" stroke-width=".21598">HTML5</tspan></text>
 <text x="63.717178" y="13.330578" fill="#ffffff" font-family="sans-serif" font-size="8.639px" stroke-width=".21598" style="line-height:1.25" xml:space="preserve"><tspan x="63.717178" y="13.330578" fill="#ffffff" stroke-width=".21598">HTML5</tspan></text>
</svg>
