<?xml version="1.0" encoding="UTF-8"?>
<svg width="104" height="20" version="1.1" xmlns="http://www.w3.org/2000/svg" xmlns:cc="http://creativecommons.org/ns#" xmlns:dc="http://purl.org/dc/elements/1.1/" xmlns:rdf="http://www.w3.org/1999/02/22-rdf-syntax-ns#">
 <metadata>
  <rdf:RDF>
   <cc:Work rdf:about="">
    <dc:format>image/svg+xml</dc:format>
    <dc:type rdf:resource="http://purl.org/dc/dcmitype/StillImage"/>
    <dc:title/>
   </cc:Work>
  </rdf:RDF>
 </metadata>
 <defs>
  <linearGradient id="linearGradient123-0" x1="15.811" x2="15.811" y2="31.623" gradientTransform="matrix(1.5811 0 0 .63246 54 0)" gradientUnits="userSpaceOnUse">
   <stop stop-color="#f0be25" offset="0"/>
   <stop stop-color="#a16e1e" offset="1"/>
  </linearGradient>
  <linearGradient id="linearGradient5152" x1="16.432" x2="16.432" y2="32.863" gradientTransform="scale(1.6432 .60858)" gradientUnits="userSpaceOnUse">
   <stop stop-color="#444D56" offset="0"/>
   <stop stop-color="#24292E" offset="1"/>
  </linearGradient>
 </defs>
 <path d="m0 3c0-1.6569 1.3552-3 3.027-3h50.973v20h-50.973c-1.6718 0-3.027-1.3431-3.027-3z" fill="url(#linearGradient5152)"/>
 <path d="m54 0h46.939c1.69 0 3.061 1.343 3.061 3v14c0 1.657-1.37 3-3.061 3h-46.939z" fill="url(#linearGradient123-0)"/>
 <g fill="#010101" fill-opacity=".3" fill-rule="evenodd" stroke-width=".75285">
  <path d="m58.003 12.097 0.77197-0.10587q0.03088 0.74109 0.27791 1.0146 0.24702 0.2735 0.68374 0.2735 0.32202 0 0.55581-0.14557 0.2338-0.14998 0.32202-0.40142 0.08823-0.25585 0.08823-0.81165v-4.4554h0.85576v4.4068q0 0.81165-0.1985 1.2572-0.19409 0.44554-0.62198 0.67933-0.42348 0.2338-0.99692 0.2338-0.8514 0-1.3057-0.48965-0.44995-0.48965-0.4323-1.4557z"/>
  <path d="m65.913 13.354q-0.44112 0.37496-0.8514 0.52934-0.40583 0.1544-0.87346 0.1544-0.77197 0-1.1866-0.37496-0.41466-0.37937-0.41466-0.96606 0-0.34408 0.1544-0.62639 0.15881-0.28673 0.41024-0.45877 0.25585-0.17204 0.57346-0.26026 0.2338-0.06176 0.7058-0.1191 0.96162-0.11469 1.416-0.2735 0.0044-0.16322 0.0044-0.20733 0-0.48524-0.22497-0.68374-0.30438-0.26908-0.90432-0.26908-0.56022 0-0.82934 0.1985-0.26467 0.19409-0.3926 0.69256l-0.77634-0.10587q0.10587-0.49847 0.34849-0.80284 0.24261-0.30879 0.70138-0.472 0.45877-0.16763 1.0631-0.16763 0.59993 0 0.97487 0.14116 0.37493 0.14116 0.5514 0.35731 0.17645 0.21174 0.24702 0.53817 0.0397 0.20292 0.0397 0.73227v1.0587q0 1.1072 0.04852 1.4028 0.05293 0.29114 0.20292 0.56023h-0.82934q-0.12351-0.24702-0.15881-0.57787zm-0.06617-1.7733q-0.4323 0.17645-1.2969 0.29997-0.48965 0.07058-0.69256 0.15881-0.20292 0.08823-0.3132 0.26026-0.11028 0.16763-0.11028 0.37496 0 0.31761 0.23821 0.52934 0.24261 0.21174 0.7058 0.21174 0.45877 0 0.81609-0.1985 0.35731-0.20292 0.52494-0.5514 0.12792-0.26908 0.12792-0.79403z"/>
  <path d="m69.186 13.931-1.7821-4.6848h0.83815l1.0057 2.8056q0.16322 0.45436 0.29997 0.944 0.10587-0.37054 0.29555-0.89107l1.041-2.8585h0.81609l-1.7733 4.6848z"/>
  <path d="m75.476 13.354q-0.44112 0.37496-0.8514 0.52934-0.40583 0.1544-0.87346 0.1544-0.77197 0-1.1866-0.37496-0.41466-0.37937-0.41466-0.96606 0-0.34408 0.15439-0.62639 0.15881-0.28673 0.41024-0.45877 0.25585-0.17204 0.57346-0.26026 0.2338-0.06176 0.7058-0.1191 0.96162-0.11469 1.416-0.2735 0.0044-0.16322 0.0044-0.20733 0-0.48524-0.22498-0.68374-0.30438-0.26908-0.90432-0.26908-0.56023 0-0.82934 0.1985-0.26467 0.19409-0.3926 0.69256l-0.77634-0.10587q0.10587-0.49847 0.34849-0.80284 0.24261-0.30879 0.70138-0.472 0.45877-0.16763 1.0631-0.16763 0.59993 0 0.97486 0.14116 0.37494 0.14116 0.5514 0.35731 0.17645 0.21174 0.24702 0.53817 0.0397 0.20292 0.0397 0.73227v1.0587q0 1.1072 0.04852 1.4028 0.05293 0.29114 0.20292 0.56023h-0.82934q-0.12351-0.24702-0.15881-0.57787zm-0.06617-1.7733q-0.4323 0.17645-1.2969 0.29997-0.48965 0.07058-0.69256 0.15881-0.20292 0.08823-0.3132 0.26026-0.11028 0.16763-0.11028 0.37496 0 0.31761 0.23821 0.52934 0.24261 0.21174 0.7058 0.21174 0.45877 0 0.81609-0.1985 0.35731-0.20292 0.52494-0.5514 0.12792-0.26908 0.12792-0.79403z"/>
  <path d="m77.258 11.854 0.80728-0.07058q0.05734 0.48523 0.26467 0.7984 0.21174 0.30879 0.65286 0.50288 0.44112 0.18968 0.99256 0.18968 0.48965 0 0.86457-0.14557t0.55581-0.39701q0.18527-0.25585 0.18527-0.55581 0-0.30438-0.17645-0.52934-0.17645-0.22939-0.58228-0.38378-0.26026-0.10145-1.1513-0.3132-0.89107-0.21615-1.2484-0.40583-0.46318-0.24262-0.69256-0.59992-0.22497-0.36172-0.22497-0.80728 0-0.48965 0.27791-0.91313 0.27791-0.42789 0.81165-0.64845 0.53376-0.22056 1.1866-0.22056 0.71903 0 1.266 0.2338 0.5514 0.22939 0.84696 0.67933 0.29555 0.44995 0.31761 1.019l-0.82046 0.061757q-0.066168-0.61316-0.44995-0.92638-0.37937-0.3132-1.1248-0.3132-0.77634 0-1.1337 0.28673-0.3529 0.28232-0.3529 0.68374 0 0.34849 0.25144 0.57346 0.24702 0.22497 1.2881 0.46318 1.0455 0.2338 1.4337 0.41024 0.56464 0.26026 0.83371 0.66169 0.26908 0.39701 0.26908 0.91757 0 0.51612-0.29555 0.97487-0.29555 0.45436-0.8514 0.71021-0.5514 0.25144-1.2439 0.25144-0.87782 0-1.4733-0.25585-0.59111-0.25585-0.93075-0.76753-0.33525-0.51612-0.3529-1.1646z"/>
  <path d="m86.539 12.216 0.78078 0.10146q-0.12792 0.80728-0.65728 1.266-0.52493 0.45436-1.2925 0.45436-0.96162 0-1.5483-0.62639-0.58228-0.63081-0.58228-1.8042 0-0.75872 0.25144-1.3278 0.25144-0.56905 0.76316-0.8514 0.51612-0.28673 1.1205-0.28673 0.76316 0 1.2484 0.38818 0.48524 0.38378 0.62198 1.094l-0.77197 0.1191q-0.11028-0.472-0.3926-0.71021-0.27791-0.23821-0.67492-0.23821-0.59993 0-0.97487 0.4323-0.37496 0.42789-0.37496 1.3587 0 0.944 0.36172 1.3719 0.36172 0.42789 0.944 0.42789 0.46759 0 0.78078-0.28673 0.3132-0.28673 0.39701-0.88226z"/>
  <path d="m87.991 13.931v-4.6848h0.71462v0.71021q0.2735-0.49847 0.50288-0.65728 0.2338-0.15881 0.5117-0.15881 0.40142 0 0.81609 0.25585l-0.2735 0.73668q-0.29114-0.17204-0.58228-0.17204-0.26026 0-0.46759 0.15881-0.20733 0.15439-0.29555 0.4323-0.13234 0.42348-0.13234 0.92638v2.4526z"/>
  <path d="m91.021 8.3779v-0.91313h0.79403v0.91313zm0 5.5538v-4.6848h0.79403v4.6848z"/>
  <path d="m93.028 15.727v-6.4801h0.72344v0.60875q0.25585-0.35731 0.57787-0.53376 0.32202-0.18086 0.78078-0.18086 0.59993 0 1.0587 0.30879 0.45877 0.30879 0.69256 0.87346 0.2338 0.56023 0.2338 1.2308 0 0.71903-0.26026 1.2969-0.25585 0.57346-0.74991 0.88226-0.48965 0.30438-1.0322 0.30438-0.39701 0-0.71462-0.16763-0.3132-0.16763-0.51612-0.42348v2.2806zm0.71903-4.1112q0 0.90432 0.36613 1.3366 0.36613 0.43229 0.88663 0.4323 0.52934 0 0.90432-0.44554 0.37937-0.44995 0.37937-1.3895 0-0.89552-0.37054-1.3411-0.36613-0.44554-0.87782-0.44554-0.50729 0-0.89988 0.47641-0.38818 0.472-0.38818 1.3763z"/>
  <path d="m99.791 13.222 0.11469 0.70138q-0.33525 0.07058-0.59993 0.07058-0.4323 0-0.6705-0.13675-0.23821-0.13675-0.33525-0.35731-0.09705-0.22497-0.09705-0.93956v-2.6953h-0.58228v-0.61757h0.58228v-1.1601l0.78959-0.47641v1.6365h0.7984v0.61757h-0.7984v2.7394q0 0.33966 0.0397 0.43671 0.04411 0.09705 0.13675 0.15439 0.09705 0.05734 0.2735 0.05734 0.13234 0 0.34849-0.03087z"/>
 </g>
 <g fill="#fff" fill-rule="evenodd" stroke-width=".75285">
  <path d="m57.657 11.69 0.77197-0.10587q0.03088 0.74109 0.27791 1.0146 0.24702 0.2735 0.68374 0.2735 0.32202 0 0.55581-0.14557 0.2338-0.14998 0.32202-0.40142 0.08823-0.25585 0.08823-0.81165v-4.4554h0.85576v4.4068q0 0.81165-0.1985 1.2572-0.19409 0.44554-0.62198 0.67933-0.42348 0.2338-0.99692 0.2338-0.8514 0-1.3057-0.48965-0.44995-0.48965-0.4323-1.4557z"/>
  <path d="m65.567 12.947q-0.44112 0.37496-0.8514 0.52934-0.40583 0.15439-0.87346 0.15439-0.77197 0-1.1866-0.37496-0.41466-0.37937-0.41466-0.96606 0-0.34408 0.1544-0.62639 0.15881-0.28673 0.41024-0.45877 0.25585-0.17204 0.57346-0.26026 0.2338-0.06176 0.7058-0.1191 0.96162-0.11469 1.416-0.2735 0.0044-0.16322 0.0044-0.20733 0-0.48523-0.22497-0.68374-0.30438-0.26908-0.90432-0.26908-0.56022 0-0.82934 0.1985-0.26467 0.19409-0.3926 0.69256l-0.7763-0.10586q0.10587-0.49847 0.34849-0.80284 0.24262-0.30879 0.70138-0.472 0.45877-0.16763 1.0631-0.16763 0.59993 0 0.97487 0.14116 0.37493 0.14116 0.5514 0.35731 0.17645 0.21174 0.24702 0.53817 0.0397 0.20292 0.0397 0.73227v1.0587q0 1.1072 0.04852 1.4028 0.05293 0.29114 0.20292 0.56023h-0.82934q-0.12351-0.24702-0.15881-0.57787zm-0.06617-1.7733q-0.4323 0.17645-1.2969 0.29996-0.48965 0.07058-0.69256 0.15881-0.20292 0.08823-0.3132 0.26026-0.11028 0.16763-0.11028 0.37496 0 0.31761 0.23821 0.52934 0.24262 0.21174 0.7058 0.21174 0.45877 0 0.81609-0.1985 0.35731-0.20292 0.52493-0.5514 0.12792-0.26908 0.12792-0.79403z"/>
  <path d="m68.84 13.525-1.7821-4.6848h0.83815l1.0057 2.8056q0.16322 0.45436 0.29997 0.944 0.10587-0.37054 0.29555-0.89107l1.041-2.8585h0.81609l-1.7733 4.6848z"/>
  <path d="m75.13 12.947q-0.44112 0.37496-0.8514 0.52934-0.40583 0.15439-0.87346 0.15439-0.77197 0-1.1866-0.37496-0.41466-0.37937-0.41466-0.96606 0-0.34408 0.15439-0.62639 0.15881-0.28673 0.41024-0.45877 0.25585-0.17204 0.57346-0.26026 0.2338-0.06176 0.7058-0.1191 0.96162-0.11469 1.416-0.2735 0.0044-0.16322 0.0044-0.20733 0-0.48523-0.22498-0.68374-0.30438-0.26908-0.90432-0.26908-0.56023 0-0.82934 0.1985-0.26467 0.19409-0.3926 0.69256l-0.7763-0.10586q0.10587-0.49847 0.34849-0.80284 0.24262-0.30879 0.70138-0.472 0.45877-0.16763 1.0631-0.16763 0.59993 0 0.97486 0.14116 0.37494 0.14116 0.5514 0.35731 0.17645 0.21174 0.24702 0.53817 0.0397 0.20292 0.0397 0.73227v1.0587q0 1.1072 0.04852 1.4028 0.05293 0.29114 0.20292 0.56023h-0.82934q-0.12351-0.24702-0.15881-0.57787zm-0.06617-1.7733q-0.4323 0.17645-1.2969 0.29996-0.48965 0.07058-0.69256 0.15881-0.20292 0.08823-0.3132 0.26026-0.11028 0.16763-0.11028 0.37496 0 0.31761 0.23821 0.52934 0.24262 0.21174 0.7058 0.21174 0.45877 0 0.81609-0.1985 0.35731-0.20292 0.52493-0.5514 0.12792-0.26908 0.12792-0.79403z"/>
  <path d="m76.913 11.447 0.80728-0.07058q0.05734 0.48523 0.26467 0.7984 0.21174 0.30879 0.65286 0.50288 0.44112 0.18968 0.99256 0.18968 0.48965 0 0.86457-0.14557 0.37496-0.14557 0.55581-0.39701 0.18527-0.25585 0.18527-0.55581 0-0.30438-0.17645-0.52934-0.17645-0.22939-0.58228-0.38378-0.26026-0.10146-1.1513-0.3132-0.89107-0.21615-1.2484-0.40583-0.46318-0.24262-0.69256-0.59993-0.22497-0.36172-0.22497-0.80728 0-0.48965 0.27791-0.91313 0.27791-0.42789 0.81165-0.64845 0.53376-0.22056 1.1866-0.22056 0.71903 0 1.266 0.2338 0.5514 0.22939 0.84696 0.67933 0.29555 0.44995 0.31761 1.019l-0.82046 0.061757q-0.06617-0.61316-0.44995-0.92638-0.37937-0.3132-1.1248-0.3132-0.77634 0-1.1337 0.28673-0.3529 0.28232-0.3529 0.68374 0 0.34849 0.25144 0.57346 0.24702 0.22497 1.2881 0.46318 1.0455 0.2338 1.4337 0.41024 0.56464 0.26026 0.83371 0.66169 0.26908 0.39701 0.26908 0.91757 0 0.51612-0.29555 0.97486-0.29555 0.45436-0.8514 0.71021-0.5514 0.25144-1.2439 0.25144-0.87782 0-1.4733-0.25585-0.59111-0.25585-0.93075-0.76753-0.33525-0.51612-0.3529-1.1646z"/>
  <path d="m86.194 11.809 0.78078 0.10146q-0.12792 0.80728-0.65728 1.266-0.52494 0.45436-1.2925 0.45436-0.96162 0-1.5483-0.62639-0.58228-0.63081-0.58228-1.8042 0-0.75872 0.25144-1.3278 0.25144-0.56905 0.76316-0.8514 0.51612-0.28673 1.1205-0.28673 0.76316 0 1.2484 0.38818 0.48523 0.38378 0.62198 1.094l-0.77197 0.1191q-0.11028-0.472-0.3926-0.71021-0.27791-0.23821-0.67492-0.23821-0.59993 0-0.97487 0.4323-0.37496 0.42789-0.37496 1.3587 0 0.944 0.36172 1.3719t0.944 0.42789q0.46759 0 0.78078-0.28673 0.3132-0.28673 0.39701-0.88226z"/>
  <path d="m87.645 13.525v-4.6848h0.71462v0.71021q0.2735-0.49847 0.50288-0.65728 0.2338-0.15881 0.5117-0.15881 0.40142 0 0.81609 0.25585l-0.2735 0.73668q-0.29114-0.17204-0.58228-0.17204-0.26026 0-0.46759 0.15881-0.20733 0.15439-0.29555 0.4323-0.13234 0.42348-0.13234 0.92638v2.4526z"/>
  <path d="m90.676 7.9711v-0.91313h0.79403v0.91313zm0 5.5538v-4.6848h0.79403v4.6848z"/>
  <path d="m92.683 15.321v-6.4801h0.72344v0.60875q0.25585-0.35731 0.57787-0.53376 0.32202-0.18086 0.78078-0.18086 0.59993 0 1.0587 0.30879 0.45877 0.30879 0.69256 0.87346 0.2338 0.56023 0.2338 1.2308 0 0.71903-0.26026 1.2969-0.25585 0.57346-0.74991 0.88226-0.48965 0.30438-1.0322 0.30438-0.39701 0-0.71462-0.16763-0.3132-0.16763-0.51612-0.42348v2.2806zm0.71903-4.1112q0 0.90432 0.36613 1.3366 0.36613 0.4323 0.88663 0.4323 0.52934 0 0.90432-0.44554 0.37937-0.44995 0.37937-1.3895 0-0.89552-0.37054-1.341-0.36613-0.44554-0.87782-0.44554-0.50729 0-0.89988 0.47641-0.38818 0.472-0.38818 1.3763z"/>
  <path d="m99.445 12.814 0.11469 0.70138q-0.33525 0.07058-0.59993 0.07058-0.4323 0-0.6705-0.13675-0.23821-0.13675-0.33525-0.35731-0.09705-0.22497-0.09705-0.93956v-2.6953h-0.58228v-0.61757h0.58228v-1.1601l0.78959-0.47641v1.6365h0.7984v0.61757h-0.7984v2.7394q0 0.33966 0.0397 0.43671 0.04411 0.09705 0.13675 0.1544 0.09705 0.05734 0.2735 0.05734 0.13234 0 0.34849-0.03088z"/>
 </g>
 <path d="m19.832 2.8147h13.35l-1.233 13.634-5.4838 1.5392-5.3997-1.5476z" fill="none" stroke="#959da5"/>
 <g fill="#fff">
  <path d="m23.68 13.685c-0.67644-0.18452-1.215-0.62657-1.5407-1.2646-0.03525-0.06904-0.06409-0.13207-0.0641-0.14005-1.3e-5 -8e-3 0.06269-0.04115 0.13936-0.07371 0.07666-0.03255 0.30414-0.13002 0.5055-0.2166l0.36611-0.15741 0.05415 0.10288c0.13304 0.25275 0.23862 0.39781 0.36667 0.50378 0.11708 0.09689 0.22036 0.14289 0.38992 0.17366 0.35451 0.06433 0.53056-0.02794 0.62491-0.32754 0.02186-0.06939 0.02342-0.20529 0.02679-2.3259l0.0036-2.2522 1.2581 0.22184-0.0092 4.569-0.02852 0.14408c-0.07834 0.39574-0.21962 0.66149-0.45452 0.85497-0.16878 0.13902-0.35309 0.21984-0.59676 0.2617-0.30095 0.05168-0.6798 0.02484-1.0415-0.07384z" stroke-width=".012966"/>
  <path d="m28.623 13.765c-0.02139 7.95e-4 -0.09433 0.0051-0.16208 0.0094-0.60348 0.03867-1.1687-0.14599-1.5367-0.50202-0.15504-0.15-0.33471-0.40026-0.30875-0.43006 0.0093-0.01066 0.89964-0.68727 0.97396-0.74015 0.02493-0.01774 0.03395-0.0106 0.1088 0.08625 0.10399 0.13454 0.29938 0.29825 0.42934 0.35972 0.05556 0.02628 0.14882 0.05779 0.20724 0.07002 0.18023 0.03773 0.26349 0.03635 0.51508-0.0085 0.20972-0.03739 0.23572-0.0447 0.34332-0.09654 0.1507-0.07259 0.2274-0.1284 0.32462-0.23617 0.18453-0.20457 0.22642-0.46684 0.10866-0.68045-0.09706-0.17606-0.30345-0.26837-0.98405-0.4401-0.65792-0.166-0.93829-0.28508-1.2-0.50969-0.24255-0.20814-0.38047-0.45686-0.44119-0.79564-0.03074-0.17151-0.03132-0.51101-0.0011-0.66991 0.13285-0.69966 0.62281-1.2579 1.3441-1.5314 0.26384-0.10004 0.6915-0.17561 0.96293-0.17014 0.15339 0.0031 0.36271 0.03477 0.47636 0.07211 0.28095 0.09228 0.54396 0.29657 0.74015 0.57488 0.04651 0.06597 0.05194 0.08056 0.03648 0.09795-0.02025 0.02278-0.92597 0.76496-0.94349 0.77313-0.0061 0.0028-0.04665-0.04156-0.0901-0.09869-0.18995-0.24973-0.40673-0.33476-0.71606-0.28084-0.26039 0.04539-0.46405 0.19469-0.5544 0.40644-0.04494 0.10533-0.05546 0.29416-0.02245 0.40316 0.06936 0.22907 0.22159 0.31234 0.87559 0.47893 0.94018 0.23948 1.3259 0.43374 1.593 0.80233 0.24392 0.33654 0.31375 0.97143 0.16249 1.4774-0.17019 0.56934-0.62551 1.0497-1.2531 1.3221-0.22314 0.09685-0.39422 0.148-0.67745 0.20256-0.14976 0.02885-0.28979 0.0531-0.31119 0.05389z" stroke-width=".012966"/>
  <path d="m32.644 3.3119-1.1338 12.744-5.0252 1.3965v-14.18z" fill-opacity=".19512"/>
 </g>
</svg>
