<?xml version="1.0" encoding="UTF-8"?>
<svg width="104" height="20" version="1.1" xmlns="http://www.w3.org/2000/svg" xmlns:cc="http://creativecommons.org/ns#" xmlns:dc="http://purl.org/dc/elements/1.1/" xmlns:rdf="http://www.w3.org/1999/02/22-rdf-syntax-ns#">
 <metadata>
  <rdf:RDF>
   <cc:Work rdf:about="">
    <dc:format>image/svg+xml</dc:format>
    <dc:type rdf:resource="http://purl.org/dc/dcmitype/StillImage"/>
    <dc:title/>
   </cc:Work>
  </rdf:RDF>
 </metadata>
 <defs>
  <linearGradient id="linearGradient121" x1="16.432" x2="16.432" y2="32.863" gradientTransform="scale(1.6432 .60858)" gradientUnits="userSpaceOnUse">
   <stop stop-color="#444D56" offset="0"/>
   <stop stop-color="#24292E" offset="1"/>
  </linearGradient>
  <linearGradient id="linearGradient123" x1="15.811" x2="15.811" y2="31.623" gradientTransform="matrix(1.5811 0 0 .63246 54 0)" gradientUnits="userSpaceOnUse">
   <stop stop-color="#8892bf" offset="0"/>
   <stop stop-color="#5b6280" offset="1"/>
  </linearGradient>
 </defs>
 <path d="m0 3c0-1.6569 1.3552-3 3.027-3h50.973v20h-50.973c-1.6718 0-3.027-1.3431-3.027-3z" fill="url(#linearGradient121)"/>
 <path d="m54 0h46.939c1.69 0 3.061 1.343 3.061 3v14c0 1.657-1.37 3-3.061 3h-46.939z" fill="url(#linearGradient123)"/>
 <text x="59.252792" y="7.3971748e-08" fill="#010101" fill-opacity=".3" fill-rule="evenodd" font-family="'DejaVu Sans', Verdana, Geneva, sans-serif" font-size="11px"><tspan x="63.252792" y="15">PHP 8</tspan></text>
 <text x="59.252792" y="7.3971748e-08" fill="#ffffff" fill-rule="evenodd" font-family="'DejaVu Sans', Verdana, Geneva, sans-serif" font-size="11px"><tspan x="63.252792" y="14">PHP 8</tspan></text>
 <g stroke-width=".040328">
  <path d="m25.987 4.3024c6.9122 0 12.227 2.9117 12.227 6.1096 0 3.198-5.3192 6.1096-12.227 6.1096-6.9122 0-12.227-2.9117-12.227-6.1096 0-3.198 5.3192-6.1096 12.227-6.1096m0-0.6775c-7.1259 0-12.905 3.0367-12.905 6.7871 0 3.7505 5.779 6.7871 12.905 6.7871 7.1259 0 12.905-3.0367 12.905-6.7871 0-3.7505-5.779-6.7871-12.905-6.7871zm-4.1054 6.2427c-0.31859 1.6333-1.4437 1.4639-2.827 1.4639l0.55249-2.8471c1.5324 0 2.5729-0.16534 2.2745 1.3832zm-4.8716 4.3473h1.48l0.35085-1.8067c1.6575 0 2.6858 0.12097 3.6376-0.77026 1.0526-0.96786 1.3268-2.6899 0.57668-3.5529-0.39118-0.45167-1.0203-0.67347-1.8752-0.67347h-2.8512zm7.4888-8.614h1.472l-0.35085 1.8067c1.2703 0 2.4479-0.09275 3.0165 0.4315 0.59685 0.54846 0.31052 1.2502-0.33472 4.5611h-1.4921c0.62105-3.202 0.738-3.4682 0.51216-3.7101-0.21777-0.2339-0.7138-0.18551-1.9115-0.18551l-0.75816 3.8956h-1.472zm8.9487 4.2667c-0.32262 1.6575-1.48 1.4639-2.827 1.4639l0.55248-2.8471c1.5405 0 2.5729-0.16534 2.2745 1.3832zm-4.8716 4.3473h1.4841l0.35085-1.8067c1.7422 0 2.706 0.1008 3.6376-0.77026 1.0526-0.96786 1.3268-2.6899 0.57668-3.5529-0.39118-0.45167-1.0203-0.67347-1.8752-0.67347h-2.8512z" fill="#202428"/>
  <path d="m25.499 3.8311c6.9122 0 12.227 2.9117 12.227 6.1096 0 3.198-5.3192 6.1096-12.227 6.1096-6.9122 0-12.227-2.9117-12.227-6.1096 0-3.198 5.3192-6.1096 12.227-6.1096m0-0.6775c-7.1259 0-12.905 3.0367-12.905 6.7871 0 3.7505 5.779 6.7871 12.905 6.7871 7.1259 0 12.905-3.0367 12.905-6.7871 0-3.7505-5.779-6.7871-12.905-6.7871z" fill="#959da5"/>
  <path d="m21.52 9.3963c-0.31859 1.6333-1.4437 1.4639-2.827 1.4639l0.55249-2.8471c1.5324 0 2.5729-0.16534 2.2745 1.3832zm-4.8716 4.3473h1.48l0.35085-1.8067c1.6575 0 2.6858 0.12097 3.6376-0.77026 1.0526-0.96786 1.3268-2.6899 0.57668-3.5529-0.39118-0.45167-1.0203-0.67347-1.8752-0.67347h-2.8512zm7.4888-8.614h1.472l-0.35085 1.8067c1.2703 0 2.4479-0.09275 3.0165 0.4315 0.59685 0.54846 0.31052 1.2502-0.33472 4.5611h-1.4921c0.62105-3.202 0.738-3.4682 0.51216-3.7101-0.21777-0.2339-0.7138-0.18551-1.9115-0.18551l-0.75816 3.8957h-1.472zm8.9487 4.2667c-0.32262 1.6575-1.48 1.4639-2.827 1.4639l0.55248-2.8471c1.5405 0 2.5729-0.16534 2.2745 1.3832zm-4.8716 4.3473h1.4841l0.35085-1.8067c1.7422 0 2.706 0.1008 3.6376-0.77026 1.0526-0.96786 1.3268-2.6899 0.57668-3.5529-0.39118-0.45167-1.0203-0.67347-1.8752-0.67347h-2.8512z" fill="#fff"/>
 </g>
</svg>
